# This file uses centimeters as units for non-parametric coordinates.

mtllib bang.mtl
g default
v 28.968443 -463.233521 -212.709412
v -44.825645 -470.743683 -124.146103
v 39.498779 -240.957016 -154.343124
v -30.385422 -216.766708 -190.438095
v -10.753723 -244.080399 -145.442719
v -38.869644 -294.895416 -193.145920
v 28.723452 -462.122406 -212.604431
v -16.041677 -274.455261 -133.717789
v -35.450111 -309.069153 -150.461868
v 12.129405 -164.979263 -185.567993
v 7.917827 -160.701401 -177.505707
v 24.459583 -174.118347 -176.865326
v 0.036239 -164.965424 -182.333969
v 3.044632 -215.988831 -150.547180
v -40.001259 -469.086517 -197.231842
v -58.449780 -470.964050 -175.091003
v -56.960777 -427.001984 -192.340973
v -56.105896 -430.545410 -181.669952
v 36.848495 -462.182587 -162.169388
v 18.399971 -464.060120 -140.028564
v 34.713417 -404.779236 -162.123642
v 39.481079 -406.613464 -147.577820
v 17.723574 -211.250076 -203.740692
v 23.211416 -308.451141 -212.586090
v 26.643253 -236.011215 -193.564514
v 3.867992 -228.127594 -205.327866
v 25.083702 -289.400879 -196.100189
vt 0.499418 0.352940
vt 0.344801 0.719313
vt 0.653674 0.720124
vt 0.976640 0.478224
vt 0.796539 0.779204
vt 0.022771 0.480394
vt 0.204240 0.780551
vt 0.688597 0.593405
vt 0.500077 0.354508
vt 0.832385 0.719298
vt 0.783642 0.676978
vt 0.168121 0.720809
vt 0.464508 0.833566
vt 0.545538 0.941048
vt 0.415143 0.924905
vt 0.500000 1.000000
vt 0.364410 0.959466
vt 0.536515 0.833403
vt 0.500000 1.000000
vt 0.658507 0.935282
vt 0.387819 0.843272
vt 0.613246 0.842759
vt 0.728006 0.878759
vt 0.656574 0.849218
vt 0.344522 0.849928
vt 0.273224 0.879793
vt 0.622990 0.368008
vt 0.861601 0.430650
vt 0.717579 0.488241
vt 0.765102 0.530027
vt 0.375916 0.368570
vt 0.137593 0.432297
vt 0.376312 0.542806
vt 0.298608 0.551757
vt 0.482359 0.767488
vt 0.518363 0.767407
vt 0.499815 0.527175
vt 0.422506 0.710362
vt 0.576942 0.710767
vt 0.438262 0.622108
vn -0.395824 0.035553 -0.917638
vn -0.344714 0.002538 -0.938705
vn -0.975604 0.080671 0.204180
vn -0.998361 0.055892 -0.012306
vn 0.363472 -0.010966 0.931541
vn 0.999764 -0.005279 -0.021078
vn 0.390679 0.034110 0.919895
vn 0.977075 0.023826 -0.211557
vn 0.865974 0.066259 0.495680
vn 0.254388 0.009853 0.967052
vn -0.344466 0.083693 0.935061
vn 0.864809 0.439807 0.242229
vn 0.087920 0.394101 -0.914852
vn -0.048384 0.567010 0.822289
vn -0.826787 0.499890 0.257939
vn -0.217270 0.388617 0.895417
vn -0.617160 0.374548 0.691973
vn -0.647146 0.280598 0.708849
vn -0.920513 0.334169 0.202454
vn -0.481540 0.129300 -0.866834
vn -0.888938 0.241634 -0.389104
vn -0.242021 0.021146 -0.970041
vn -0.912790 0.138049 0.384391
vn -0.836686 0.111311 -0.536253
vn 0.985699 0.037261 -0.164348
vn 0.210688 0.319414 -0.923897
vn 0.898641 0.028364 -0.437767
vn -0.188633 0.042246 -0.981139
vn -0.021616 0.008730 -0.999728
vn 0.943099 0.051969 -0.328427
s 1
g GlacialWall028
usemtl GlacialWall014SG1
f 17/29/1 15/27/2 18/30/3
f 18/30/3 15/27/2 16/28/4
f 20/32/5 19/31/6 22/34/7
f 22/34/7 19/31/6 21/33/8
f 3/2/9 8/12/10 2/6/11
f 12/21/12 10/14/13 11/19/14
f 13/24/15 14/17/16 11/16/14
f 13/20/15 11/14/14 10/18/13
f 14/26/16 12/15/12 11/17/14
f 8/12/17 3/2/9 5/7/18
f 9/11/19 8/10/17 5/5/18
f 9/11/19 5/5/18 6/8/20
f 6/8/20 5/5/18 4/3/21
f 7/9/22 6/8/20 4/3/21
f 5/7/18 3/2/9 14/26/16
f 14/26/16 3/2/9 12/25/12
f 5/5/18 14/23/16 4/3/21
f 4/3/21 14/23/16 13/24/15
f 8/10/10 9/11/23 2/4/11
f 16/28/4 2/4/11 18/30/3
f 9/11/23 18/30/3 2/4/11
f 6/8/24 17/29/1 9/11/23
f 9/11/23 17/29/1 18/30/3
f 1/1/25 15/27/2 7/9/22
f 15/27/2 17/29/1 7/9/22
f 6/8/24 7/9/22 17/29/1
f 23/35/26 25/38/27 26/39/28
f 24/37/29 26/39/28 27/40/30
f 27/40/30 26/39/28 25/38/27
f 20/32/5 22/34/7 2/6/11
f 2/6/11 22/34/7 3/2/9
f 27/40/30 21/33/8 24/37/29
f 1/1/25 24/37/29 19/31/6
f 21/33/8 19/31/6 24/37/29
f 1/1/25 7/9/22 24/37/29
f 7/9/22 4/3/21 24/37/29
f 4/3/21 26/39/28 24/37/29
f 13/22/15 10/18/13 4/3/21
f 26/39/28 4/3/21 23/36/26
f 23/36/26 4/3/21 10/18/13
f 3/2/9 25/38/27 12/21/12
f 12/21/12 25/38/27 10/13/13
f 25/38/27 23/35/26 10/13/13
f 21/33/8 27/40/30 22/34/7
f 3/2/9 22/34/7 25/38/27
f 27/40/30 25/38/27 22/34/7
g default
v -99.250920 -474.973566 -141.996951
v -174.409939 -475.184368 -185.438300
v -158.551462 -474.897777 -126.138449
v -165.211247 -245.332715 -179.828615
v -155.108365 -246.574451 -142.050862
v -119.855904 -245.244117 -161.598102
v -112.810368 -302.642247 -149.614481
v -127.635503 -302.623313 -145.649843
v -123.274944 -229.429059 -156.053530
v -136.457830 -205.040512 -175.052798
v -135.113465 -199.883072 -164.099709
v -148.671920 -205.024894 -171.786452
v -145.405550 -204.965855 -159.572502
v -137.306744 -248.620407 -146.410257
v -129.348389 -244.690137 -149.910924
v -130.438529 -262.988707 -147.310002
v -111.144778 -475.188522 -186.471836
v -109.641445 -413.273893 -191.218671
v -129.934533 -475.241196 -197.332176
v -127.634860 -417.778302 -195.929755
v -120.387529 -302.779151 -177.947840
v -125.538776 -245.346802 -182.848116
v -136.877611 -245.368958 -187.405747
v -129.689257 -235.295904 -186.211799
v -123.510011 -296.426418 -192.548411
vt 0.252414 0.384200
vt 0.746562 0.383076
vt 0.653674 0.720124
vt 0.976640 0.478224
vt 0.796539 0.779204
vt 0.022771 0.480394
vt 0.204240 0.780551
vt 0.423523 0.711116
vt 0.299624 0.552511
vt 0.184803 0.600607
vt 0.373387 0.845490
vt 0.464508 0.833566
vt 0.536515 0.833403
vt 0.408312 0.904497
vt 0.343365 0.914481
vt 0.613246 0.842759
vt 0.656574 0.849218
vt 0.273224 0.879793
vt 0.728006 0.878759
vt 0.239888 0.765618
vt 0.324462 0.798088
vt 0.230170 0.675647
vt 0.375916 0.368570
vt 0.499815 0.527175
vt 0.622990 0.368008
vt 0.576546 0.536532
vt 0.376312 0.542806
vt 0.461867 0.706263
vt 0.576942 0.710767
vt 0.482359 0.767488
vt 0.518363 0.767407
vt 0.500013 0.614293
vn 0.276626 0.070079 0.958419
vn 0.550588 0.231730 0.801969
vn 0.251531 0.110821 0.961484
vn -0.026319 0.025443 -0.999330
vn -0.172073 0.026276 -0.984734
vn 0.937381 0.055480 -0.343860
vn 0.895572 0.010145 -0.444801
vn -0.982535 0.043902 -0.180827
vn -0.640430 0.062771 0.765447
vn -0.796895 0.097306 0.596230
vn -0.938997 0.091093 -0.331643
vn 0.786160 0.088891 0.611597
vn 0.263733 0.061391 0.962640
vn 0.976492 0.088287 0.196643
vn -0.596138 0.473010 0.648753
vn 0.705279 0.608451 0.363827
vn -0.740081 0.508097 -0.440587
vn 0.446546 0.455805 -0.769960
vn 0.747061 0.361795 0.557677
vn 0.986560 0.163124 0.009519
vn 0.970843 0.074750 -0.227764
vn 0.340870 0.083909 -0.936358
vn 0.859338 0.131401 -0.494239
vn 0.725394 0.340536 -0.598197
vn -0.208221 0.089209 -0.974005
s 1
g GlacialWall029
usemtl GlacialWall014SG1
f 43/62/31 42/61/32 41/60/33
f 46/65/34 47/66/35 44/63/36
f 44/63/36 47/66/35 45/64/37
f 29/42/38 30/44/39 32/45/40
f 32/45/40 31/43/41 29/42/38
f 30/46/39 28/41/42 35/50/43
f 35/50/43 28/41/42 34/49/44
f 40/58/45 38/54/46 39/57/47
f 39/57/47 38/54/46 37/53/48
f 32/45/40 40/59/45 31/43/41
f 31/43/41 40/59/45 39/57/47
f 32/47/40 41/60/33 40/58/45
f 40/58/45 41/60/33 38/55/46
f 41/60/33 42/61/32 38/55/46
f 42/61/32 36/51/49 38/55/46
f 32/47/40 30/46/39 41/60/33
f 41/60/33 30/46/39 43/62/31
f 35/50/43 43/62/31 30/46/39
f 35/50/43 34/49/44 43/62/31
f 36/51/49 42/61/32 33/48/50
f 33/48/50 42/61/32 34/49/44
f 42/61/32 43/62/31 34/49/44
f 46/65/34 29/42/38 47/66/35
f 47/66/35 29/42/38 31/43/41
f 48/67/51 52/72/52 49/68/53
f 51/70/54 49/68/53 50/69/55
f 52/72/52 50/69/55 49/68/53
f 31/43/41 50/69/55 47/66/35
f 50/69/55 52/72/52 47/66/35
f 52/72/52 45/64/37 47/66/35
f 39/56/47 37/53/48 31/43/41
f 31/43/41 37/53/48 50/69/55
f 51/71/54 50/69/55 37/53/48
f 49/68/53 51/70/54 33/48/50
f 51/70/54 37/52/48 33/48/50
f 37/52/48 38/54/46 33/48/50
f 36/51/49 33/48/50 38/54/46
f 28/41/42 48/67/51 34/49/44
f 34/49/44 48/67/51 33/48/50
f 48/67/51 49/68/53 33/48/50
f 28/41/42 44/63/36 48/67/51
f 44/63/36 45/64/37 48/67/51
f 45/64/37 52/72/52 48/67/51
g default
v -28.047999 -474.987736 -364.850490
v -43.002056 -475.247820 -420.768321
v -98.920637 -475.179313 -405.814251
v -83.966580 -474.919173 -349.896316
v -46.879372 -278.178323 -375.417364
v -55.917836 -278.335480 -409.214601
v -89.715538 -278.293892 -400.176267
v -80.677074 -278.136680 -366.379069
v -67.688234 -244.688446 -386.682455
v -67.688234 -244.688446 -386.682455
v -67.688234 -244.688446 -386.682455
v -67.688234 -244.688446 -386.682455
vt 0.252414 0.384200
vt 0.499418 0.352940
vt 0.500211 0.701411
vt 0.346834 0.720821
vt 0.746562 0.383076
vt 0.653674 0.720124
vt 0.976640 0.478224
vt 0.796539 0.779204
vt 0.500000 1.000000
vt 0.500000 1.000000
vt 0.500000 1.000000
vt 0.500000 1.000000
vt 0.428805 0.965722
vt 0.428805 0.965722
vt 0.572818 0.965394
vt 0.659473 0.978313
vt 0.022771 0.480394
vt 0.204240 0.780551
vt 0.572818 0.965394
vt 0.342209 0.979035
vt 0.659473 0.978313
vt 0.342209 0.979035
vn 0.849405 0.108998 0.516363
vn 0.530824 0.084296 -0.843279
vn 0.528726 0.148913 -0.835628
vn 0.826885 0.166046 0.537299
vn -0.850437 0.054744 -0.523220
vn -0.831549 0.124303 -0.541365
vn -0.509244 0.080285 0.856869
vn -0.550316 0.141063 0.822954
vn 0.859283 0.455902 -0.231920
vn 0.232881 0.436947 0.868818
vn -0.225147 0.486535 -0.844152
vn -0.853834 0.468848 0.226162
vn 0.000000 0.000000 0.000000
vn 0.000000 0.000000 0.000000
vn 0.000000 0.000000 0.000000
vn 0.000000 0.000000 0.000000
s 1
g GlacialWall030
usemtl GlacialWall014SG1
f 53/73/56 54/74/57 58/75/58
f 58/75/58 57/76/59 53/73/56
f 54/74/57 55/77/60 59/78/61
f 59/78/61 58/75/58 54/74/57
f 55/77/60 56/79/62 60/80/63
f 60/80/63 59/78/61 55/77/60
f 56/89/62 53/73/56 57/76/59
f 57/76/59 60/90/63 56/89/62
f 57/76/59 58/75/58 62/85/64
f 62/85/64 61/86/65 57/76/59
f 58/75/58 59/78/61 63/87/66
f 63/87/66 62/91/64 58/75/58
f 59/78/61 60/80/63 64/88/67
f 64/88/67 63/93/66 59/78/61
f 60/90/63 57/76/59 61/92/65
f 61/92/65 64/94/67 60/90/63
s 4
f 62/82/68 63/83/69 64/84/70
f 64/84/70 61/81/71 62/82/68
g default
v -99.250921 -474.973549 -253.618077
v -108.461478 -475.139999 -288.059255
v -142.903057 -475.095982 -278.848684
v -133.692500 -474.929531 -244.407507
v -109.751304 -357.245281 -259.517058
v -115.619028 -357.351312 -281.458299
v -137.560484 -357.323256 -275.590596
v -131.692760 -357.217217 -253.649389
v -121.710356 -325.288634 -273.798521
v -119.798065 -325.254082 -266.647871
v -128.861076 -330.239988 -271.886231
v -126.948785 -325.244934 -264.735595
vt 0.252414 0.384200
vt 0.499418 0.352940
vt 0.500211 0.701411
vt 0.346834 0.720821
vt 0.746562 0.383076
vt 0.653674 0.720124
vt 0.976640 0.478224
vt 0.796539 0.779204
vt 0.022771 0.480394
vt 0.204240 0.780551
vt 0.464508 0.833566
vt 0.536515 0.833403
vt 0.387819 0.843272
vt 0.344522 0.849928
vt 0.613246 0.842759
vt 0.656574 0.849218
vt 0.273224 0.879793
vt 0.728006 0.878759
vn 0.849646 0.101709 0.517452
vn 0.530846 0.079540 -0.843727
vn 0.542076 0.115041 -0.832418
vn 0.830822 0.147585 0.536613
vn -0.850135 0.053058 -0.523886
vn -0.840105 0.096802 -0.533717
vn -0.510906 0.075908 0.856278
vn -0.531454 0.120735 0.838439
vn -0.817707 0.305732 -0.487733
vn -0.510463 0.478526 0.714452
vn 0.400921 0.432720 -0.807475
vn 0.792735 0.417847 0.443819
s 1
g GlacialWall031
usemtl GlacialWall014SG1
f 65/95/72 66/96/73 70/97/74
f 70/97/74 69/98/75 65/95/72
f 66/96/73 67/99/76 71/100/77
f 71/100/77 70/97/74 66/96/73
f 67/99/76 68/101/78 72/102/79
f 72/102/79 71/100/77 67/99/76
f 68/103/78 65/95/72 69/98/75
f 69/98/75 72/104/79 68/103/78
f 75/110/80 76/111/81 73/106/82
f 73/106/82 76/111/81 74/107/83
f 71/100/77 72/102/79 75/110/80
f 75/110/80 72/102/79 76/112/81
f 69/98/75 74/108/83 72/104/79
f 72/104/79 74/108/83 76/111/81
f 69/98/75 70/97/74 74/107/83
f 74/107/83 70/97/74 73/105/82
f 71/100/77 75/109/80 70/97/74
f 70/97/74 75/109/80 73/106/82
g default
v 35.469611 -475.225478 -323.008327
v -15.894251 -475.162551 -309.272306
v -2.158242 -474.923600 -257.909036
v -7.438932 -294.313973 -304.093551
v 12.786355 -262.151429 -288.295015
v 36.232490 -339.402508 -278.924783
v 23.391524 -339.386764 -275.490754
v 24.146916 -294.198249 -279.275795
v 27.129632 -286.517315 -283.938207
v 27.803270 -294.279192 -296.700440
v 31.918289 -308.961080 -285.792272
v 28.951668 -291.725805 -287.426140
v 1.183102 -360.863190 -266.229910
v -3.293464 -360.941071 -282.969201
v -0.537874 -302.002511 -281.281452
v 6.056100 -291.942581 -277.242006
v 9.755953 -301.964796 -273.193341
v 29.862714 -372.564416 -322.392564
v 37.458630 -372.486535 -305.653296
v 24.973793 -294.328391 -307.280603
v 13.488360 -294.339721 -309.690025
v 20.079781 -283.857951 -304.541277
v 44.729056 -475.064434 -288.384408
v 32.466138 -474.966062 -267.168552
v 44.977676 -430.799724 -274.017578
v 44.360679 -441.581815 -282.728406
vt 0.499418 0.352940
vt 0.746562 0.383076
vt 0.653674 0.720124
vt 0.976640 0.478224
vt 0.428805 0.965722
vt 0.572818 0.965394
vt 0.659473 0.978313
vt 0.022771 0.480394
vt 0.342209 0.979035
vt 0.299624 0.552511
vt 0.184803 0.600607
vt 0.275537 0.750686
vt 0.387819 0.843272
vt 0.344522 0.849928
vt 0.461867 0.706263
vt 0.361573 0.631813
vt 0.384022 0.780522
vt 0.405671 0.777194
vt 0.886589 0.628714
vt 0.113506 0.630472
vt 0.771550 0.581140
vt 0.725106 0.749664
vt 0.273224 0.879793
vt 0.728006 0.878759
vt 0.239888 0.765618
vt 0.499815 0.527175
vt 0.376312 0.542806
vt 0.481039 0.703837
vt 0.576942 0.710767
vt 0.464508 0.833566
vt 0.536515 0.833403
vt 0.375916 0.368570
vt 0.137593 0.432297
vt 0.276019 0.468356
vt 0.314363 0.463503
vn 0.970761 0.071799 -0.229059
vn -0.030617 0.014895 -0.999420
vn 0.683269 0.223117 -0.695242
vn 0.221703 0.613865 -0.757639
vn -0.127906 0.183716 -0.974622
vn 0.136252 0.054906 -0.989152
vn -0.719383 0.057761 -0.692208
vn -0.748739 0.152093 -0.645181
vn -0.957933 0.039445 0.284267
vn -0.271787 0.079169 0.959095
vn -0.886409 0.118642 0.447442
vn -0.558556 0.393262 0.730315
vn -0.049808 0.154174 0.986787
vn 0.986419 0.164248 0.000869
vn 0.955361 0.192308 -0.224286
vn 0.947715 0.301213 -0.105388
vn 0.293118 0.069841 0.953522
vn 0.845216 0.120936 0.520561
vn 0.378053 0.204478 0.902920
vn 0.842586 0.475906 0.252115
vn -0.355451 0.934529 0.017615
vn -0.577632 0.084279 0.811935
vn 0.990881 0.032971 -0.130646
vn 0.992224 0.000183 -0.124463
vn 0.335894 0.059496 0.940019
vn 0.736658 0.072552 0.672363
s 1
g GlacialWall032
usemtl GlacialWall014SG1
f 95/139/84 94/138/85 96/140/86
f 98/142/87 96/140/86 97/141/88
f 97/141/88 96/140/86 94/138/85
f 77/113/89 78/114/90 80/115/91
f 90/133/92 89/132/93 91/134/94
f 92/136/95 91/134/94 93/137/96
f 93/137/96 91/134/94 89/132/93
f 87/128/97 86/127/98 88/129/99
f 83/123/100 82/122/101 84/124/102
f 82/122/101 87/128/97 84/124/102
f 84/124/102 87/128/97 85/126/103
f 85/126/103 87/128/97 88/129/99
f 93/137/96 84/124/102 92/135/95
f 92/135/95 84/124/102 81/121/104
f 84/124/102 85/126/103 81/121/104
f 91/134/94 92/136/95 80/115/91
f 80/115/91 92/136/95 81/119/104
f 91/134/94 80/115/91 90/133/92
f 90/133/92 80/115/91 78/114/90
f 78/114/90 79/116/105 90/133/92
f 90/133/92 79/116/105 89/131/93
f 79/120/105 83/123/100 89/132/93
f 89/132/93 83/123/100 93/137/96
f 83/123/100 84/124/102 93/137/96
f 97/141/88 80/115/91 98/143/87
f 98/143/87 80/115/91 81/118/104
f 96/140/86 98/142/87 86/127/98
f 86/127/98 98/142/87 88/130/99
f 81/117/104 85/125/103 98/142/87
f 85/125/103 88/130/99 98/142/87
f 99/144/106 102/147/107 100/145/108
f 100/145/108 102/147/107 101/146/109
f 97/141/88 94/138/85 80/115/91
f 80/115/91 94/138/85 77/113/89
f 95/139/84 102/147/107 94/138/85
f 77/113/89 94/138/85 99/144/106
f 102/147/107 99/144/106 94/138/85
f 96/140/86 86/127/98 95/139/84
f 86/127/98 87/128/97 95/139/84
f 102/147/107 95/139/84 101/146/109
f 101/146/109 95/139/84 82/122/101
f 95/139/84 87/128/97 82/122/101
f 79/120/105 100/145/108 83/123/100
f 83/123/100 100/145/108 82/122/101
f 100/145/108 101/146/109 82/122/101
